Coordinates
version=1
nRows=13
nColumns=22
inDegrees=yes

Units are S.I. units (second, meters, Newtons, ...)
If the header above contains a line with 'inDegrees', this indicates whether rotational values are in degrees (yes) or radians (no).

endheader
time	pelvis_tilt	pelvis_list	pelvis_rotation	pelvis_tx	pelvis_ty	pelvis_tz	hip_flexion_r	hip_adduction_r	hip_rotation_r	knee_angle_r	ankle_angle_r	subtalar_angle_r	hip_flexion_l	hip_adduction_l	hip_rotation_l	knee_angle_l	ankle_angle_l	subtalar_angle_l	lumbar_extension	lumbar_bending	lumbar_rotation
      1.09000000	      2.73843198	     -3.02515912	     10.87990547	     -1.04646396	      0.93162020	     -0.50040819	     24.90969909	      0.56507809	    -14.30242310	    -32.51882343	      5.90912192	      0.12493127	     -8.89765366	     -2.01533560	     -6.17030339	    -15.08815586	     28.15174763	     -9.43513152	    -15.93364871	      4.20875508	    -17.33486935
      1.10000000	      2.71781786	     -3.04592318	     10.77184896	     -1.04080439	      0.93016514	     -0.49989960	     25.16689142	      0.77813637	    -15.01893368	    -30.57561487	      5.49998636	      0.32845643	     -9.22387169	     -2.12309915	     -6.36494696	    -15.19831173	     28.52965766	     -9.44232598	    -15.97773509	      4.23900953	    -17.32074545
      1.11000000	      2.80315774	     -3.05114759	     10.62223493	     -1.03481612	      0.92879144	     -0.49931932	     25.26803681	      1.03443207	    -15.72213592	    -28.61693570	      5.18955716	      0.85299506	     -9.74399679	     -2.23236344	     -6.66059222	    -15.20796946	     28.88213846	     -9.29187213	    -16.11670336	      4.26649127	    -17.27247372
      1.12000000	      2.80208766	     -3.06466375	     10.46742305	     -1.02866331	      0.92718138	     -0.49866460	     25.45216549	      1.30858868	    -16.37256140	    -26.68544596	      4.88619791	      1.15151428	    -10.14522333	     -2.34344754	     -6.98225850	    -15.29115016	     29.26367013	     -9.15691241	    -16.13176642	      4.28366146	    -17.23793893
      1.13000000	      2.81537920	     -3.08066463	     10.29344648	     -1.02225352	      0.92553004	     -0.49793206	     25.59872200	      1.61529574	    -16.94654487	    -24.79113564	      4.65066773	      1.51891192	    -10.60870285	     -2.45698080	     -7.30722585	    -15.32001152	     29.58887051	     -8.90880422	    -16.13815243	      4.29702774	    -17.16335412
      1.14000000	      2.83111962	     -3.08962280	     10.11571732	     -1.01563856	      0.92382066	     -0.49716124	     25.72727376	      1.92577096	    -17.43834052	    -22.95947605	      4.48325744	      1.95976891	    -11.09856449	     -2.56283528	     -7.61434937	    -15.33629743	     29.84646613	     -8.50181161	    -16.13066762	      4.30336502	    -17.06501799
      1.15000000	      2.79203997	     -3.10557452	      9.95747728	     -1.00884099	      0.92195315	     -0.49638626	     25.90994469	      2.22304573	    -17.87771788	    -21.22219244	      4.35718047	      2.17820697	    -11.51836738	     -2.67742781	     -7.94281256	    -15.39487571	     30.15412768	     -8.26340532	    -16.03900515	      4.31773822	    -17.02530383
      1.16000000	      2.77654655	     -3.11764824	      9.81883363	     -1.00182460	      0.92008430	     -0.49562996	     26.04915686	      2.50843917	    -18.25099262	    -19.58370259	      4.32627448	      2.43030510	    -11.98664456	     -2.79367181	     -8.23517027	    -15.43731564	     30.40417170	     -7.92711468	    -15.96105779	      4.34546886	    -16.98872040
      1.17000000	      2.76493135	     -3.11234072	      9.70595545	     -0.99459948	      0.91819887	     -0.49489400	     26.17801896	      2.75444252	    -18.55627418	    -18.09140131	      4.39447341	      2.73739540	    -12.49019462	     -2.89217434	     -8.46067494	    -15.44675592	     30.56271092	     -7.46267271	    -15.87867242	      4.36431121	    -16.96922982
      1.18000000	      2.74575812	     -3.10921938	      9.64115985	     -0.98719653	      0.91626587	     -0.49420366	     26.31802246	      2.96509462	    -18.81581164	    -16.77772526	      4.55226083	      2.91942914	    -12.95762741	     -3.01075662	     -8.68640735	    -15.52740902	     30.77997909	     -7.21369727	    -15.77880643	      4.40434202	    -17.02909398
      1.19000000	      2.77271501	     -3.09532134	      9.61257536	     -0.97957370	      0.91442059	     -0.49354432	     26.40476964	      3.14228485	    -19.02043739	    -15.66104236	      4.74078476	      3.16793604	    -13.50390169	     -3.12920944	     -8.83196135	    -15.57476980	     30.87974466	     -6.83530079	    -15.72818476	      4.45186560	    -17.10089514
      1.20000000	      2.81442031	     -3.07529465	      9.62991107	     -0.97176068	      0.91259075	     -0.49293949	     26.49473549	      3.26943863	    -19.21326263	    -14.80947820	      4.99891899	      3.34012375	    -14.04628196	     -3.26164319	     -8.97019886	    -15.67855643	     31.00529659	     -6.59726113	    -15.68990005	      4.51721492	    -17.24518267
      1.21000000	      2.89989028	     -3.04749449	      9.67587085	     -0.96371003	      0.91086545	     -0.49235294	     26.54453440	      3.36272668	    -19.38618659	    -14.22493917	      5.22713464	      3.52090944	    -14.65208300	     -3.40034440	     -9.05088404	    -15.77461166	     31.03405372	     -6.31447293	    -15.69420804	      4.59159479	    -17.41003487
